<?xml version="1.0" standalone="no"?>
<!DOCTYPE svg PUBLIC "-//W3C//DTD SVG 20010904//EN"
 "http://www.w3.org/TR/2001/REC-SVG-20010904/DTD/svg10.dtd">
<svg version="1.0" xmlns="http://www.w3.org/2000/svg"
 width="512.000000pt" height="512.000000pt" viewBox="0 0 512.000000 512.000000"
 preserveAspectRatio="xMidYMid meet">

<g transform="translate(0.000000,512.000000) scale(0.100000,-0.100000)"
fill="#000000" stroke="none">
<path d="M0 2560 l0 -2560 2560 0 2560 0 0 2560 0 2560 -2560 0 -2560 0 0
-2560z m2411 1030 c73 -14 166 -59 213 -103 21 -20 41 -37 43 -37 3 0 22 13
42 29 44 35 118 72 191 97 78 26 264 26 340 0 154 -53 264 -177 301 -341 7
-31 13 -212 16 -477 l5 -428 -216 0 -215 0 -3 378 c-3 369 -3 378 -26 419 -29
55 -82 83 -155 83 -68 0 -113 -28 -144 -90 -23 -44 -23 -50 -23 -417 l0 -373
-215 0 -215 0 0 373 c0 367 0 373 -22 417 -33 63 -66 83 -141 87 -51 3 -69 0
-101 -19 -76 -45 -76 -44 -76 -475 l0 -383 -215 0 -215 0 0 620 0 620 195 0
195 0 0 -46 0 -45 33 25 c44 33 135 75 189 85 61 12 157 13 219 1z m-716
-1521 c121 -22 226 -102 281 -214 26 -55 29 -69 29 -165 0 -96 -3 -110 -29
-165 -17 -33 -53 -83 -80 -110 -187 -186 -502 -134 -618 103 -31 62 -33 73
-33 172 0 96 3 110 29 165 54 108 151 185 266 211 71 16 85 16 155 3z m1969
-29 c43 -20 82 -49 119 -90 180 -194 120 -499 -121 -613 -61 -29 -75 -32 -167
-32 -90 0 -106 3 -160 29 -77 38 -158 120 -193 193 -24 52 -27 70 -27 163 0
96 3 110 29 165 34 69 113 152 171 180 115 55 242 57 349 5z"/>
</g>
</svg>
