<?xml version="1.0" encoding="UTF-8"?>
<!DOCTYPE svg PUBLIC "-//W3C//DTD SVG 1.1//EN" "http://www.w3.org/Graphics/SVG/1.1/DTD/svg11.dtd">
<!-- Creator: CorelDRAW X8 -->
<svg xmlns="http://www.w3.org/2000/svg" xml:space="preserve" width="30px" height="30px" version="1.1" style="shape-rendering:geometricPrecision; text-rendering:geometricPrecision; image-rendering:optimizeQuality; fill-rule:evenodd; clip-rule:evenodd"
viewBox="0 0 30 30"
 xmlns:xlink="http://www.w3.org/1999/xlink">
 <defs>
  <style type="text/css">
   <![CDATA[
    .fil0 {fill:url(#id0);fill-rule:nonzero}
    .fil2 {fill:url(#id1);fill-rule:nonzero}
    .fil1 {fill:url(#id2);fill-rule:nonzero}
    .fil3 {fill:url(#id3);fill-rule:nonzero}
   ]]>
  </style>
  <linearGradient id="id0" gradientUnits="userSpaceOnUse" x1="-1.78" y1="4.7591" x2="16.4425" y2="31.0804">
   <stop offset="0" style="stop-opacity:1; stop-color:#F39313"/>
   <stop offset="0.611765" style="stop-opacity:1; stop-color:#7A9067"/>
   <stop offset="1" style="stop-opacity:1; stop-color:#008DBB"/>
  </linearGradient>
  <linearGradient id="id1" gradientUnits="userSpaceOnUse" xlink:href="#id0" x1="5.8619" y1="-6.5584" x2="27.3138" y2="24.4276">
  </linearGradient>
  <linearGradient id="id2" gradientUnits="userSpaceOnUse" xlink:href="#id0" x1="2.6714" y1="-3.8814" x2="40.1654" y2="50.2769">
  </linearGradient>
  <linearGradient id="id3" gradientUnits="userSpaceOnUse" xlink:href="#id0" x1="12.5238" y1="-2.0191" x2="29.2821" y2="22.1876">
  </linearGradient>
 </defs>
 <g id="__x0023_Layer_x0020_1">
  <metadata id="CorelCorpID_0Corel-Layer"/>
  <g id="_2648489099040">
   <path class="fil0" d="M13 25l-6 0c-4,0 -7,-3 -7,-7 0,-4 3,-7 7,-7 2,0 4,1 5,2 1,0 1,1 0,2 0,0 -1,0 -2,0 -1,-1 -2,-2 -3,-2 -2,0 -4,2 -4,5 0,2 2,4 4,4l6 0c1,0 2,1 2,2 0,0 -1,1 -2,1z"/>
   <path class="fil1" d="M7 10c1,0 2,0 2,0 1,0 1,0 1,0 1,-2 2,-2 3,-2 1,0 2,-1 2,-2 0,0 -1,-1 -2,-1 -2,0 -4,1 -5,3 -1,1 -1,1 -1,2 0,0 0,0 0,0z"/>
   <path class="fil2" d="M17 25l6 0c4,0 7,-3 7,-7 0,-4 -3,-7 -7,-7 -2,0 -4,0 -5,2 -1,0 -1,1 0,2 0,0 1,0 2,0 1,-1 2,-2 3,-2 2,0 4,2 4,5 0,2 -2,4 -4,4l-6 0c-1,0 -2,1 -2,2 0,0 1,1 2,1z"/>
   <path class="fil3" d="M23 10c-1,0 -2,0 -2,0 -1,0 -1,0 -1,0 -1,-2 -2,-2 -3,-2 -1,0 -2,-1 -2,-2 0,0 1,-1 2,-1 2,0 4,1 5,3 1,1 1,1 1,2 0,0 0,0 0,0z"/>
  </g>
 </g>
</svg>
