<svg width="800" height="600" viewBox="0 0 800 600" version="1.1" xmlns="http://www.w3.org/2000/svg"><defs><linearGradient x1="50%" y1="0%" x2="50%" y2="100%" id="linearGradient-1"><stop stop-color="#FDFDFD" offset="0%"/><stop stop-color="#FAFAFA" offset="100%"/></linearGradient></defs><g id="Illustrations-/-Integrations_Icons" stroke="none" stroke-width="1" fill="none" fill-rule="evenodd"><g id="Illustration" transform="translate(40 73)"><path d="M40.902 113.633c-3.651-10.134 68.145-80.1 165.373-94.3 90.013-13.146 112.347 36 240.945 34.628 86.325-.922 82.261-20.94 132.684-8.835 59.1 14.189 140.167 79.23 139.974 166.769-.147 66.294-27.038 127.448-93.949 137.587-111.615 16.912-154.369-151.563-303.182-165.758-125.597-11.98-161.084 52.81-159.612 55.983 1.562 3.367 55.894-62.72 149.831-19.99C392.248 255.78 422.01 386.03 491.675 382.633c8.478-.414 45.384-3.188 68.012 2.842 28.445 7.58 61.824 27.982 59.569 40.728-3.852 21.772-132.073 33.5-220.047 21.367-95.687-13.2-99.813-33.472-159.149-31.257-105.711 3.945-147.047 60.327-186.71 39.253-51.835-27.54-76.418-163.9-24.895-245.32 99.192-156.752 451.917-37.406 454.218-62.93 1.145-12.683-84.524-90.672-191.045-92.517-147.35-2.553-246.617 70.238-250.726 58.834" id="Fill-1" fill="url(#linearGradient-1)"/><path d="M105.218 237.743l92.166 80.517" id="Stroke-4" stroke="#ECEFF1" stroke-width="2"/><path d="M366.457 350.465l-169.073-32.206" id="Stroke-6" stroke="#ECEFF1" stroke-width="2"/><path d="M105.218 237.743l129.166-43.637" id="Stroke-8" stroke="#ECEFF1" stroke-width="2"/><path d="M105.218 237.743L73.262 132.892" id="Stroke-10" stroke="#ECEFF1" stroke-width="2"/><path d="M167.361 88.206l-94.099 44.686" id="Stroke-12" stroke="#ECEFF1" stroke-width="2"/><path d="M366.457 350.465l-132.073-156.36" id="Stroke-14" stroke="#ECEFF1" stroke-width="2"/><path d="M336.457 68.26L166.735 92.195" id="Stroke-16" stroke="#ECEFF1" stroke-width="2"/><path d="M234.383 194.106l-67.649-101.91" id="Stroke-18" stroke="#ECEFF1" stroke-width="2"/><path d="M406.99 121.853l88.623 6" id="Stroke-20" stroke="#ECEFF1" stroke-width="2"/><path d="M336.457 68.26l70.534 53.593" id="Stroke-22" stroke="#ECEFF1" stroke-width="2"/><path d="M366.457 350.465l40.534-228.611" id="Stroke-24" stroke="#ECEFF1" stroke-width="2"/><path d="M595.613 218.388l-100-90.534" id="Stroke-26" stroke="#ECEFF1" stroke-width="2"/><path d="M595.613 218.388l33.73-119.332" id="Stroke-28" stroke="#ECEFF1" stroke-width="2"/><path d="M495.613 127.853l133.73-28.797" id="Stroke-30" stroke="#ECEFF1" stroke-width="2"/><path d="M477.6 224.894l-111.144 125.57" id="Stroke-32" stroke="#ECEFF1" stroke-width="2"/><path d="M595.613 218.388l-118.014 6.507" id="Stroke-34" stroke="#ECEFF1" stroke-width="2"/><path d="M477.6 224.894l58.013 83.365" id="Stroke-36" stroke="#ECEFF1" stroke-width="2"/><path d="M411.35 344.08c-3.04 8.04-6.22 16.08-7.59 24.11-.74 4.02-.98 8.04-1.04 12.06-.16 4.02-.13 8.04-.1 12.06.03 1.34.07 2.72.12 4.14.05 1.59.12 3.23.19 4.9h-72.86c.07-1.67.14-3.31.19-4.9.05-1.42.09-2.8.12-4.14.03-4.02.05-8.04-.1-12.06-.07-4.02-.31-8.04-1.05-12.06-1.36-8.03-4.55-16.07-7.59-24.11-3.01-8.04-5.28-16.08-5.02-24.12.2-8.04 2.49-16.08 5.33-24.12 6.23-16.08 35.32-20.18 35.32-20.18h18.46s29.08 4.1 35.32 20.18c2.84 8.04 5.13 16.08 5.32 24.12.26 8.04-2 16.08-5.02 24.12" id="Fill-50" fill="#FFD54F"/><path d="M355.328 276.992l4.215-30.354a7.023 7.023 0 0 1 7.921-5.99c3.181.443 5.566 2.959 5.99 5.99l4.214 30.354c.857 6.169-3.449 11.865-9.619 12.72-6.169.858-11.865-3.45-12.72-9.617a11.679 11.679 0 0 1 0-3.103" id="Fill-52" fill="#FFB74D"/><path d="M401.78 203.512c11.811 21.072 5.61 48.506-13.847 61.276-19.457 12.77-44.804 6.04-56.614-15.033-11.81-21.072-5.61-48.506 13.847-61.276 19.457-12.769 44.804-6.039 56.614 15.033" id="Fill-1" fill="#FFB74D"/><path d="M344.606 236.546c-3.317 5.391-13.764 4.987-19.154 1.67-5.39-3.319-7.072-10.379-3.752-15.77 3.317-5.39 10.379-7.07 15.769-3.753 5.39 3.32 10.454 12.462 7.137 17.853" id="Fill-3" fill="#FFB74D"/><path d="M388.581 236.351c3.365 5.361 13.807 4.865 19.167 1.5 5.361-3.367 6.979-10.442 3.612-15.803-3.365-5.36-10.44-6.978-15.801-3.613-5.361 3.367-10.344 12.555-6.978 17.916" id="Fill-5" fill="#FFB74D"/><path d="M389.484 266.13h-7.996a3.895 3.895 0 0 1-3.895-3.894 3.895 3.895 0 0 1 3.895-3.893h7.996a3.894 3.894 0 1 1 0 7.787" id="Fill-7" fill="#37474F"/><path d="M318 223.46v10.63c0 3.64 2.96 6.6 6.601 6.6h2.099c1.2 0 2.17-.97 2.17-2.18v-19.47c0-1.2-.97-2.18-2.17-2.18h-2.099a6.607 6.607 0 0 0-6.601 6.6" id="Fill-9" fill="#1976D2"/><path d="M318 223.46v10.63c0 3.64 2.96 6.6 6.601 6.6h1.58v-23.83h-1.58a6.607 6.607 0 0 0-6.601 6.6" id="Fill-11" fill="#2196F3"/><path d="M412.075 228.828h-3.12v-6.99c0-25.11-18.833-45.54-41.98-45.54-23.148 0-41.98 20.43-41.98 45.54v6.99h-3.12v-6.99c0-26.83 20.231-48.66 45.1-48.66 24.868 0 45.1 21.83 45.1 48.66v6.99z" id="Fill-13" fill="#2196F3"/><path d="M388.665 263.945c-1.961 0-3.271-.204-3.421-.228l.481-2.96c.092.014 9.411 1.43 15.833-4.045 4.174-3.56 6.291-9.287 6.291-17.022h3c0 8.667-2.479 15.168-7.367 19.322-4.922 4.185-11.062 4.933-14.817 4.933" id="Fill-15" fill="#37474F"/><path d="M415.95 223.46v10.63c0 3.64-2.96 6.6-6.6 6.6h-2.1c-1.2 0-2.17-.97-2.17-2.18v-19.47c0-1.2.97-2.18 2.17-2.18h2.1c3.64 0 6.6 2.96 6.6 6.6" id="Fill-17" fill="#1976D2"/><path d="M415.95 223.46v10.63c0 3.64-2.96 6.6-6.6 6.6h-1.58v-23.83h1.58c3.64 0 6.6 2.96 6.6 6.6" id="Fill-20" fill="#2196F3"/><path d="M409.894 215.325a56.477 56.477 0 0 1-.772 7.097 18.13 18.13 0 0 1-5.01 9.652l-1.603-16.894-.857-8.766-23.558-12.074v-.036l-8.613-4.4-15.666 6.355-21.512 8.723-1.34 10.445-2.093 16.13a12.117 12.117 0 0 1-4.635-7.472c-.504-2.733-.832-5.483-1.046-8.375a144.549 144.549 0 0 1-.239-5.787v-.14c-.082-2.629-.096-5.469-.11-8.522-.05-11.256 2.148-28.345 11.499-25.332 9.387 2.976 15.904-.746 36.73-4.354 10.998-1.895 19.852 1.048 26.304 6.488 5.738 4.838 10.884 12.308 11.995 22.635.593 5.572.755 10.294.526 14.627" id="Fill-23" fill="#37474F"/><path d="M356.492 183.251c.185 1.561-.513 4.37-1.884 7.607v.036a39.888 39.888 0 0 1-.808 1.815c-2.884 6.119-7.752 13.242-13.42 16.392-2.833 1.575-6.167 2.406-9.432 2.775-.178.037-.39.038-.568.074-2.555.296-5.04.307-7.206.21a142.728 142.728 0 0 1-.24-5.787v-.142a51.99 51.99 0 0 1 1.204-8.918c1.6-7.179 5.37-14.084 11.064-18.974 5.718.188 21.142 3.528 21.29 4.912" id="Fill-26" fill="#37474F"/><path d="M404.074 208.198s-42.636 2.695-55.01-12.022c-12.373-14.716 10.554-16.53 25.615-15.069 15.062 1.462 21.631 13.027 29.395 27.091" id="Fill-28" fill="#37474F"/><path d="M444.387 299.666H288.61c-6.573 0-11.74 5.622-11.185 12.172l7.16 84.617h163.826l7.16-84.617c.555-6.55-4.611-12.172-11.184-12.172" id="Fill-54" fill="#455A64"/><path d="M449.632 372.341c-6.904-4.693-11.043-13.034-9.425-14.809 1.14-1.249 4.601 1.337 5.925 0 2.553-2.58-7.279-15.32-5.387-16.963 1.217-1.055 5.92 3.641 7.54 2.423 2.354-1.769-4.3-14.157-2.693-15.078.675-.386 1.87 1.782 3.77 1.615 2.764-.24 3.2-5.089 5.385-5.654 2.844-.735 7.916 5.983 11.847 15.348 2.495 5.941 12.257 29.2 3.288 36.046-5.339 4.075-15.05.61-20.25-2.928" id="Fill-56" fill="#26A69A"/><path d="M468.5 385.391c-8.842.647-19.355-25.809-14.82-29.64 2.038-1.721 6.573 1.577 7.8 0 2.417-3.105-13.406-18.125-11.31-20.671 1.29-1.566 7.925 3.349 9.75 1.561 3.41-3.34-14.37-25.724-11.7-28.081 1.445-1.273 7.357 4.636 9.36 3.121 3.385-2.559-8.527-23.14-6.24-24.571 1.235-.772 4.819 5.148 7.8 4.29 4.936-1.419 3.14-19.948 5.85-20.279 1.707-.209 2.26 7.15 6.63 8.58 5.368 1.755 11.96-6.916 13.26-5.851 1.933 1.583-12.476 20.848-9.75 23.4 1.622 1.518 8.143-3.95 9.75-2.339 2.194 2.196-7.764 14.553-5.46 16.77 1.162 1.116 4.269-1.462 5.46-.391 2.8 2.519-10.482 20.236-7.8 22.621 1.177 1.045 4.378-1.786 5.46-.78 2.586 2.398-13.705 20.32-8.97 27.3 1.174 1.728 2.568 1.212 3.9 3.12 4.196 6.001-2.432 21.361-8.97 21.84" id="Fill-58" fill="#4DB6AC"/><path d="M483.17 372.14l-.949 5.315-1.99 11.072a9.632 9.632 0 0 1-9.48 7.928h-19.118a9.632 9.632 0 0 1-9.48-7.928l-1.99-11.072-.95-5.315h43.957z" id="Fill-60" fill="#FF7043"/><path id="Fill-62" fill="#FF8A65" d="M483.17 372.14l-.949 5.315h-42.058l-.95-5.315z"/><path d="M526.5 398.9c0 1.354-.878 2.45-1.96 2.45H208.46c-1.083 0-1.96-1.096-1.96-2.45 0-1.353.877-2.45 1.96-2.45h316.08c1.082 0 1.96 1.097 1.96 2.45" id="Fill-64" fill="#ECEFF1"/><path d="M206.984 348.26c6.65 0 8.775 0 11.775-1a12.6 12.6 0 0 0 7.625-7.626c1-3 1-5.125 1-11.775v-19.2c0-6.65 0-8.775-1-11.775a12.608 12.608 0 0 0-7.625-7.625c-3-1-5.125-1-11.775-1h-19.2c-6.65 0-8.775 0-11.775 1a12.6 12.6 0 0 0-7.625 7.625c-1 3-1 5.125-1 11.775v19.2c0 6.65 0 8.775 1 11.775 1.25 3.5 4.13 6.375 7.63 7.625 3 1 5.12 1 11.77 1h19.2z" id="Fill-66" fill="#2895D8"/><path d="M115.984 266.26c6.65 0 8.775 0 11.775-1a12.6 12.6 0 0 0 7.625-7.626c1-3 1-5.125 1-11.775v-19.2c0-6.65 0-8.775-1-11.775a12.608 12.608 0 0 0-7.625-7.625c-3-1-5.125-1-11.775-1h-19.2c-6.65 0-8.775 0-11.775 1a12.6 12.6 0 0 0-7.625 7.625c-1 3-1 5.125-1 11.775v19.2c0 6.65 0 8.775 1 11.775 1.25 3.5 4.13 6.375 7.63 7.625 3 1 5.12 1 11.77 1h19.2z" id="Fill-68" fill="#FF4A00"/><path d="M243.984 224.106c6.65 0 8.775 0 11.775-1a12.6 12.6 0 0 0 7.625-7.625c1-3 1-5.125 1-11.775v-19.2c0-6.65 0-8.775-1-11.775a12.608 12.608 0 0 0-7.625-7.625c-3-1-5.125-1-11.775-1h-19.2c-6.65 0-8.775 0-11.775 1a12.6 12.6 0 0 0-7.625 7.625c-1 3-1 5.125-1 11.775v19.2c0 6.65 0 8.775 1 11.775 1.25 3.5 4.13 6.375 7.63 7.625 3 1 5.12 1 11.77 1h19.2z" id="Fill-70" fill="#37474F"/><path d="M480.799 234.894c2.217 0 2.925 0 3.925-.333a4.202 4.202 0 0 0 2.542-2.542c.333-1 .333-1.708.333-3.925v-6.4c0-2.217 0-2.925-.333-3.925a4.205 4.205 0 0 0-2.542-2.542c-1-.333-1.708-.333-3.925-.333h-6.4c-2.216 0-2.925 0-3.925.333a4.2 4.2 0 0 0-2.541 2.542c-.334 1-.334 1.708-.334 3.925v6.4c0 2.217 0 2.925.334 3.925a4.26 4.26 0 0 0 2.543 2.542c1 .333 1.707.333 3.923.333h6.4z" id="Fill-72" fill="#ECEFF1"/><path d="M76.463 142.892c2.216 0 2.925 0 3.925-.333a4.2 4.2 0 0 0 2.54-2.542c.335-1 .335-1.708.335-3.925v-6.4c0-2.217 0-2.925-.334-3.925a4.203 4.203 0 0 0-2.541-2.542c-1-.333-1.71-.333-3.925-.333h-6.4c-2.217 0-2.925 0-3.925.333a4.205 4.205 0 0 0-2.542 2.542c-.333 1-.333 1.708-.333 3.925v6.4c0 2.217 0 2.925.333 3.925a4.265 4.265 0 0 0 2.543 2.542c1 .333 1.707.333 3.924.333h6.4z" id="Fill-74" fill="#ECEFF1"/><path d="M111.186 322.12c1.108 0 1.462 0 1.962-.167a2.096 2.096 0 0 0 1.27-1.27c.168-.5.168-.855.168-1.963v-3.2c0-1.108 0-1.463-.167-1.963a2.1 2.1 0 0 0-1.271-1.27c-.5-.167-.854-.167-1.962-.167h-3.2c-1.11 0-1.463 0-1.963.167a2.106 2.106 0 0 0-1.271 1.27c-.166.5-.166.855-.166 1.963v3.2c0 1.108 0 1.463.166 1.963a2.133 2.133 0 0 0 1.272 1.27c.5.167.853.167 1.962.167h3.2z" id="Fill-76" fill="#2196F3"/><path d="M609.512 294.07c1.108 0 1.463 0 1.963-.168a2.097 2.097 0 0 0 1.27-1.27c.167-.5.167-.855.167-1.963v-3.2c0-1.108 0-1.463-.167-1.963a2.1 2.1 0 0 0-1.27-1.27c-.5-.167-.855-.167-1.963-.167h-3.199c-1.109 0-1.463 0-1.963.167a2.1 2.1 0 0 0-1.27 1.27c-.168.5-.168.855-.168 1.963v3.2c0 1.108 0 1.463.167 1.963a2.128 2.128 0 0 0 1.272 1.27c.5.167.853.167 1.962.167h3.2z" id="Fill-78" fill="#2196F3"/><path d="M468.2 59.26c1.107 0 1.461 0 1.961-.168a2.098 2.098 0 0 0 1.271-1.27c.167-.5.167-.855.167-1.963v-3.2c0-1.108 0-1.463-.167-1.963a2.1 2.1 0 0 0-1.27-1.27c-.5-.167-.855-.167-1.963-.167H465c-1.109 0-1.463 0-1.963.167a2.1 2.1 0 0 0-1.27 1.27c-.167.5-.167.855-.167 1.963v3.2c0 1.108 0 1.463.166 1.963a2.133 2.133 0 0 0 1.272 1.27c.5.167.853.167 1.962.167h3.2z" id="Fill-80" fill="#2196F3"/><path d="M254.896 118.455c1.108 0 1.462 0 1.962-.167a2.098 2.098 0 0 0 1.271-1.27c.167-.5.167-.855.167-1.963v-3.2c0-1.108 0-1.463-.167-1.963a2.098 2.098 0 0 0-1.27-1.27c-.5-.167-.855-.167-1.963-.167h-3.2c-1.108 0-1.463 0-1.963.167a2.1 2.1 0 0 0-1.27 1.27c-.167.5-.167.855-.167 1.963v3.2c0 1.108 0 1.463.167 1.963a2.129 2.129 0 0 0 1.271 1.27c.5.167.854.167 1.962.167h3.2z" id="Fill-82" fill="#CFD8DC"/><path d="M410.19 131.853c2.218 0 2.926 0 3.926-.333a4.202 4.202 0 0 0 2.542-2.542c.333-1 .333-1.708.333-3.925v-6.4c0-2.217 0-2.925-.333-3.925a4.202 4.202 0 0 0-2.542-2.542c-1-.333-1.708-.333-3.925-.333h-6.4c-2.217 0-2.925 0-3.925.333a4.202 4.202 0 0 0-2.542 2.542c-.333 1-.333 1.708-.333 3.925v6.4c0 2.217 0 2.925.333 3.925a4.264 4.264 0 0 0 2.544 2.542c1 .333 1.706.333 3.923.333h6.4z" id="Fill-84" fill="#ECEFF1"/><path d="M177.371 120.18c6.65 0 8.775 0 11.775-1a12.6 12.6 0 0 0 7.625-7.625c1-3 1-5.125 1-11.775v-19.2c0-6.65 0-8.775-1-11.775a12.606 12.606 0 0 0-7.625-7.625c-3-1-5.125-1-11.775-1h-19.2c-6.65 0-8.775 0-11.775 1a12.6 12.6 0 0 0-7.625 7.625c-1 3-1 5.125-1 11.775v19.2c0 6.65 0 8.775 1 11.775 1.25 3.5 4.13 6.375 7.63 7.625 3 1 5.12 1 11.77 1h19.2z" id="Fill-86" fill="#0F9BD7"/><path d="M545.213 338.26c6.65 0 8.775 0 11.775-1a12.6 12.6 0 0 0 7.625-7.626c1-3 1-5.125 1-11.775v-19.2c0-6.65 0-8.775-1-11.775a12.606 12.606 0 0 0-7.625-7.625c-3-1-5.125-1-11.775-1h-19.2c-6.65 0-8.775 0-11.775 1a12.6 12.6 0 0 0-7.625 7.625c-1 3-1 5.125-1 11.775v19.2c0 6.65 0 8.775 1 11.775 1.25 3.5 4.13 6.375 7.63 7.625 3 1 5.12 1 11.77 1h19.2z" id="Fill-88" fill="#25C16F"/><path d="M605.213 248.26c6.65 0 8.775 0 11.775-1a12.598 12.598 0 0 0 7.625-7.626c1-3 1-5.125 1-11.775v-19.2c0-6.65 0-8.775-1-11.775a12.606 12.606 0 0 0-7.625-7.625c-3-1-5.125-1-11.775-1h-19.2c-6.65 0-8.775 0-11.775 1a12.6 12.6 0 0 0-7.625 7.625c-1 3-1 5.125-1 11.775v19.2c0 6.65 0 8.775 1 11.775 1.25 3.5 4.13 6.375 7.63 7.625 3 1 5.12 1 11.77 1h19.2z" id="Fill-90" fill="#F26322"/><path d="M640.141 129.26c6.65 0 8.774 0 11.774-1a12.598 12.598 0 0 0 7.625-7.626c1-3 1-5.125 1-11.775v-19.2c0-6.65 0-8.775-1-11.775a12.603 12.603 0 0 0-7.625-7.625c-3-1-5.125-1-11.774-1h-19.2c-6.65 0-8.776 0-11.776 1a12.6 12.6 0 0 0-7.625 7.625c-1 3-1 5.125-1 11.775v19.2c0 6.65 0 8.775 1 11.775 1.25 3.5 4.13 6.375 7.63 7.625 3 1 5.12 1 11.771 1h19.2z" id="Fill-92" fill="#286EFA"/><path d="M505.213 158.26c6.65 0 8.775 0 11.775-1a12.6 12.6 0 0 0 7.625-7.626c1-3 1-5.125 1-11.775v-19.2c0-6.65 0-8.775-1-11.775a12.606 12.606 0 0 0-7.625-7.625c-3-1-5.125-1-11.775-1h-19.2c-6.65 0-8.775 0-11.775 1a12.6 12.6 0 0 0-7.625 7.625c-1 3-1 5.125-1 11.775v19.2c0 6.65 0 8.775 1 11.775 1.25 3.5 4.13 6.375 7.63 7.625 3 1 5.12 1 11.77 1h19.2z" id="Fill-94" fill="#37474F"/><path d="M346.1 98.26c6.65 0 8.774 0 11.774-1a12.6 12.6 0 0 0 7.625-7.626c1-3 1-5.125 1-11.775v-19.2c0-6.65 0-8.775-1-11.775a12.606 12.606 0 0 0-7.625-7.625c-3-1-5.125-1-11.775-1h-19.2c-6.65 0-8.775 0-11.775 1a12.6 12.6 0 0 0-7.625 7.625c-1 3-1 5.125-1 11.775v19.2c0 6.65 0 8.775 1 11.775 1.25 3.5 4.13 6.375 7.63 7.625 3 1 5.12 1 11.77 1h19.2z" id="Fill-96" fill="#F6921E"/><path d="M270.952 387.138h-8.345a9.312 9.312 0 0 0-9.31 9.312h26.967a9.312 9.312 0 0 0-9.312-9.312" id="Fill-98" fill="#ECEFF1"/><path d="M233.325 183.61c0 3.533-2.876 6.398-6.424 6.398-3.55 0-6.425-2.865-6.425-6.398h12.849z" id="Fill-100" fill="#FFF"/><path d="M235.442 204.602c0-3.533 2.876-6.398 6.424-6.398 3.549 0 6.425 2.865 6.425 6.398h-12.849z" id="Fill-102" fill="#FFF"/><path id="Fill-104" fill="#FFF" d="M233.325 189.154v15.448h-12.85z"/><path id="Fill-106" fill="#FFF" d="M235.442 199.058V183.61h12.849z"/><path id="Fill-108" fill="#FFF" d="M595.629 200.412l-15.472 8.93v17.837l4.417 2.553-.031-17.84 11.055-6.38 11.054 6.38v17.833l4.416-2.546v-17.852z"/><path id="Fill-110" fill="#FFF" d="M597.819 229.729l-2.206 1.283-2.218-1.271v-17.85l-4.413 2.55.008 17.84 6.619 3.825 6.626-3.824V214.44l-4.416-2.55z"/><path d="M541.99 312.727a2.433 2.433 0 0 1-1.9 2.397v.185a2.969 2.969 0 0 1-2.95 2.951h-2.288a.405.405 0 0 1-.387-.387c0-.185.203-.277.387-.277h2.27a2.323 2.323 0 0 0 2.286-2.287v-.092h-1.9v-5.81h2.878v-1.623a5.773 5.773 0 0 0-11.528 0v1.623h2.84v5.81h-2.103a2.527 2.527 0 0 1-2.47-2.471v-5.055a7.432 7.432 0 0 1 7.432-7.432c4.205 0 7.525 3.338 7.433 7.525v4.943zm4.76-19.699h-12.193c-8.945.093-16.176 7.323-16.176 16.287v.018c.01 8.934 7.261 16.167 16.194 16.157h.093c8.933 0 16.176-7.242 16.176-16.175v-12.266a4.059 4.059 0 0 0-4.095-4.021z" id="Fill-112" fill="#FFF"/><path d="M337.562 78.344c-2.18 2.573-4.642 5.481-7.83 5.481 1.23-1.678 2.07-3.69 2.684-5.76-7.774-1.287-13.59-5.929-13.59-11.522 0-2.74 1.901-8.166 8.165-8.166 5.09 0 8.781 4.083 8.781 8.725 0 3.524-1.678 4.81-2.628 4.81-1.119 0-1.679-.783-1.679-2.349v-8.166h-2.349v.727c-.67-.67-1.678-1.007-2.852-1.007-4.53 0-5.258 4.531-5.258 5.985 0 1.957 1.007 6.04 5.258 6.04 1.398 0 2.517-.447 3.412-1.398.727 1.622 1.901 2.405 3.468 2.405 2.013 0 4.865-1.678 4.865-7.103 0-7.942-7.215-11.074-9.62-11.074 13.144-4.139 25.784 2.405 25.784 10.515 0 6.32-7.326 11.465-16.61 11.857m-14.04-11.242c0-1.175.56-3.692 2.741-3.692 1.846 0 2.74 1.175 2.74 3.58 0 2.573-.894 3.86-2.74 3.86-1.846.055-2.74-1.23-2.74-3.748" id="Fill-114" fill="#FFF"/><path d="M186.098 321.92l9.464-9.463a6.346 6.346 0 0 0 0-8.976l-9.464 9.464a6.346 6.346 0 0 0 0 8.976" id="Fill-116" fill="#FFF"/><path d="M208.613 303.536l-22.46 22.46a6.348 6.348 0 0 0 0 8.977l22.46-22.46a6.348 6.348 0 0 0 0-8.977" id="Fill-118" fill="#FFF"/><path d="M208.67 316.587l-9.465 9.464a6.348 6.348 0 0 0 0 8.977l9.464-9.464a6.348 6.348 0 0 0 0-8.977" id="Fill-120" fill="#FFF"/><path d="M278.887 462.954c-7.301-13.462-37.744-10.445-42.246 0-4.465 10.36 13.812 34.462 28.776 30.613 11.098-2.855 18.85-20.692 13.47-30.613" id="Fill-122" fill="url(#linearGradient-1)"/><path d="M424.034 6.13c-4.972-9.167-25.705-7.114-28.771 0-3.041 7.055 9.406 23.47 19.597 20.849 7.558-1.944 12.839-14.092 9.174-20.85" id="Fill-124" fill="#FAFAFA"/><path d="M122.413 233.55h-9.49l6.71-6.709a16.356 16.356 0 0 0-1.756-2.077 16.475 16.475 0 0 0-2.075-1.756l-6.71 6.71v-9.488a16.401 16.401 0 0 0-2.7-.226h-.017c-.905 0-1.808.076-2.7.226v9.488l-6.71-6.709a16.4 16.4 0 0 0-2.075 1.756l-.002.002a16.224 16.224 0 0 0-1.754 2.074l6.71 6.71h-9.49s-.225 1.781-.225 2.702v.012c0 .906.076 1.81.225 2.703h9.489l-6.71 6.71a16.354 16.354 0 0 0 3.832 3.831l6.71-6.709v9.488c.89.15 1.793.225 2.697.226h.023a16.356 16.356 0 0 0 2.698-.226V242.8l6.71 6.71a16.3 16.3 0 0 0 2.074-1.756h.002a16.475 16.475 0 0 0 1.755-2.076l-6.71-6.71h9.489c.15-.89.225-1.793.226-2.697v-.023a16.484 16.484 0 0 0-.226-2.698zm-11.965 2.716a9.718 9.718 0 0 1-.625 3.432 9.718 9.718 0 0 1-3.432.625h-.014a9.744 9.744 0 0 1-3.432-.624 9.72 9.72 0 0 1-.625-3.433v-.014a9.738 9.738 0 0 1 .624-3.43 9.7 9.7 0 0 1 3.433-.626h.014c1.208 0 2.365.222 3.432.625a9.74 9.74 0 0 1 .625 3.432v.013z" id="Fill-126" fill="#FFF"/><path d="M497.13 130.947c-2.955 0-4.303-2.826-4.303-5.471 0-4.148 2.255-5.626 4.382-5.626 2.591 0 4.354 2.23 4.354 5.575-.025 3.837-2.255 5.522-4.433 5.522m1.115-15.945c-3.086 0-4.875 1.4-5.73 2.333-.103-.83-.649-1.892-2.774-1.892h-4.64v4.822h1.892c.31 0 .415.104.415.415v22.064h5.495v-8.867c.856.778 2.49 1.867 5.058 1.867 5.365 0 9.125-4.253 9.125-10.371.026-6.197-3.552-10.371-8.84-10.371" id="Fill-128" fill="#FFF"/><path d="M173.828 87.965c-.32 0-.55.11-.7.338-.15.23-.227.559-.227.976 0 .418.077.748.229.98.149.23.378.343.698.343.32 0 .549-.113.702-.343.153-.232.23-.562.23-.98 0-.417-.077-.746-.23-.976-.153-.227-.382-.338-.702-.338" id="Fill-130" fill="#FFF"/><path d="M164.018 87.95c-.32 0-.547.125-.698.353a1.449 1.449 0 0 0-.197.576h1.74c-.017-.224-.061-.425-.161-.576-.152-.228-.364-.354-.684-.354" id="Fill-132" fill="#FFF"/><path d="M157.854 89.542c-.146.104-.218.258-.218.472 0 .136.025.242.074.318.032.05.044.068.141.144-.002 0 .218.172.714.142.35-.02.66-.087.66-.087v-1.109s-.314-.052-.663-.056c-.498-.007-.709.176-.708.176" id="Fill-134" fill="#FFF"/><path d="M185.159 89.42c-.007.063-.071.063-.071.063l-2.44-.001c.016.37.105.632.284.81.176.175.456.287.835.288.579 0 .827-.116 1-.181 0 0 .069-.023.093.042l.16.447c.032.075.007.1-.021.117-.152.085-.524.242-1.228.244a2.471 2.471 0 0 1-.886-.143 1.625 1.625 0 0 1-.614-.406 1.626 1.626 0 0 1-.353-.621 2.628 2.628 0 0 1-.111-.78c0-.275.037-.537.107-.777a1.77 1.77 0 0 1 .33-.633 1.63 1.63 0 0 1 .562-.43c.225-.104.5-.155.806-.155.26 0 .5.056.699.14.152.067.306.185.463.354.099.107.25.34.312.572.156.549.075 1.024.073 1.05zm-3.612 1.645a2.973 2.973 0 0 1-1.021.18c-.624 0-1.103-.18-1.422-.534-.32-.354-.48-.837-.48-1.434 0-.277.039-.538.118-.776a1.651 1.651 0 0 1 .93-1.046c.232-.103.5-.155.803-.155.204 0 .386.013.54.036.168.025.388.085.482.122.017.006.064.029.045.085-.068.192-.114.316-.177.492-.027.074-.084.049-.084.049a2.431 2.431 0 0 0-.762-.108c-.356 0-.624.119-.8.35-.176.236-.274.543-.276.95-.001.449.11.78.309.986.199.204.477.308.825.308.142 0 .274-.01.395-.028.119-.02.23-.055.335-.096 0 0 .068-.026.092.044l.177.489c.023.06-.03.086-.03.086zm-3.234-3.047c-.016.042-.042.07-.09.066 0 0-.14-.034-.267-.034a1.17 1.17 0 0 0-.327.047.738.738 0 0 0-.302.18.902.902 0 0 0-.213.36c-.054.153-.081.396-.081.64v1.818a.074.074 0 0 1-.074.074h-.64a.074.074 0 0 1-.075-.074v-3.64c0-.04.029-.073.07-.073h.626c.04 0 .07.033.07.074v.297c.093-.125.26-.236.412-.304.152-.07.322-.12.629-.101.16.01.367.054.409.07a.065.065 0 0 1 .036.087c-.022.067-.141.4-.183.513zm-2.832 2.036a1.74 1.74 0 0 1-.327.626 1.56 1.56 0 0 1-.554.417c-.221.1-.48.15-.772.15-.293 0-.552-.05-.773-.15-.22-.1-.407-.241-.553-.417a1.719 1.719 0 0 1-.328-.626 2.714 2.714 0 0 1-.106-.775c0-.276.035-.536.106-.774.07-.24.18-.45.328-.626a1.56 1.56 0 0 1 .553-.42c.22-.103.48-.156.773-.156.292 0 .552.053.772.156.22.102.407.244.554.42.146.176.257.387.327.626.07.238.107.498.107.774s-.036.537-.107.775zm-3.571-2.09c-.013.074-.081.072-.081.072h-.804l-.55 3.109a4.74 4.74 0 0 1-.213.819c-.086.225-.176.39-.317.547a1.147 1.147 0 0 1-.451.314 1.79 1.79 0 0 1-.6.093 1.635 1.635 0 0 1-.58-.1c-.03-.01-.054-.048-.037-.096.017-.05.16-.445.18-.496.026-.064.089-.04.089-.04a.584.584 0 0 0 .132.043c.058.01.137.02.195.02a.943.943 0 0 0 .287-.04.462.462 0 0 0 .224-.172 1.23 1.23 0 0 0 .17-.347c.054-.154.103-.356.146-.602l.547-3.052h-.54c-.064 0-.085-.031-.078-.08l.09-.506c.014-.074.082-.072.082-.072h.554l.03-.165c.083-.49.248-.861.49-1.106.244-.246.592-.371 1.033-.371a1.904 1.904 0 0 1 .573.083c.017.007.063.03.044.085l-.186.513c-.016.038-.027.062-.106.037a1.045 1.045 0 0 0-.325-.05.85.85 0 0 0-.262.037.518.518 0 0 0-.204.127.701.701 0 0 0-.171.26c-.09.259-.125.533-.13.55h.78c.066 0 .087.03.08.079l-.091.507zm-4.261 3.298a2.57 2.57 0 0 1-1.26-.294c-.08-.047-.16-.088-.238-.145-.01-.012-.045-.026-.018-.095l.17-.473c.025-.078.098-.05.114-.04.045.03.08.055.142.09.502.318.966.32 1.112.32.376 0 .609-.2.609-.466v-.015c0-.292-.36-.402-.775-.53l-.091-.028c-.57-.162-1.18-.397-1.18-1.117v-.015c0-.684.552-1.161 1.343-1.161l.086-.001c.465 0 .913.135 1.237.332.03.018.058.052.042.097l-.176.473c-.03.08-.114.027-.114.027a2.488 2.488 0 0 0-1.097-.28c-.334 0-.55.177-.55.418v.014c0 .282.369.402.797.542l.074.023c.568.179 1.173.428 1.173 1.11v.016c0 .739-.536 1.198-1.4 1.198zm-2.027-1.842c-.006.063-.071.063-.071.063l-2.44-.001c.016.37.105.632.285.81.176.175.457.287.835.288.578 0 .826-.116 1-.181 0 0 .069-.023.093.042l.16.447c.03.075.006.1-.021.117-.153.085-.524.242-1.23.244a2.471 2.471 0 0 1-.885-.143 1.63 1.63 0 0 1-.613-.406 1.626 1.626 0 0 1-.353-.621 2.595 2.595 0 0 1-.111-.78c0-.275.036-.537.107-.777a1.628 1.628 0 0 1 .892-1.062c.224-.105.5-.156.806-.156.26 0 .499.056.698.14a1.459 1.459 0 0 1 .774.926c.158.549.077 1.024.074 1.05zm-4.04 1.675c0 .04-.028.074-.07.074h-.646c-.041 0-.07-.033-.07-.074v-5.206c0-.041.029-.074.07-.074h.647c.04 0 .07.033.07.074v5.206zm-1.637-.071s-.09.025-.171.044c-.081.019-.374.078-.614.12-.242.04-.49.06-.741.06-.238 0-.454-.021-.646-.065a1.35 1.35 0 0 1-.497-.215 1.01 1.01 0 0 1-.318-.382 1.268 1.268 0 0 1-.112-.558c0-.211.044-.4.13-.561a1.17 1.17 0 0 1 .354-.402 1.56 1.56 0 0 1 .51-.236c.19-.052.392-.077.6-.077.154 0 .282.003.38.01 0 0 .194.018.403.048v-.103c0-.326-.067-.48-.2-.581-.137-.104-.34-.158-.603-.158 0 0-.594-.007-1.063.247-.022.013-.04.02-.04.02s-.06.02-.08-.04l-.173-.463c-.026-.067.022-.097.022-.097.219-.172.752-.275.752-.275.176-.036.47-.06.654-.06.487 0 .864.113 1.12.337.257.225.387.587.387 1.077l.002 2.23s.005.065-.056.08zm-3.534-.96c0 .739-.537 1.198-1.4 1.198-.424 0-.83-.066-1.26-.294-.08-.047-.16-.088-.24-.145-.007-.012-.043-.026-.017-.095l.17-.473c.028-.081.09-.055.114-.04.047.029.082.055.142.09.502.318.967.32 1.113.32.375 0 .607-.2.607-.466v-.015c0-.292-.357-.402-.773-.53l-.092-.028c-.57-.162-1.178-.397-1.178-1.117v-.015c0-.684.55-1.161 1.342-1.161l.086-.001c.464 0 .912.135 1.237.332.029.018.058.052.042.097l-.176.473c-.03.08-.115.027-.115.027a2.48 2.48 0 0 0-1.096-.28c-.335 0-.55.177-.55.418v.014c0 .282.369.402.797.542l.074.023c.567.179 1.173.428 1.173 1.11v.016zm24-10.623a8.96 8.96 0 0 0-3.67.78c-1.29-2.3-3.713-3.848-6.492-3.848-2.09 0-3.98.877-5.337 2.29a8.165 8.165 0 0 0-6.5-3.212c-4.513 0-8.173 3.656-8.173 8.163 0 1.155.24 2.252.672 3.247a7.107 7.107 0 0 0-3.512 6.148c0 3.92 3.145 7.098 7.024 7.098.495 0 .978-.052 1.444-.151a7.565 7.565 0 1 0 14.066.342 6.63 6.63 0 0 0 8.691-2.729 9.006 9.006 0 0 0 1.788.179c5.01 0 9.073-4.1 9.073-9.154s-4.062-9.153-9.073-9.153z" id="Fill-136" fill="#FFF"/><path d="M183.554 87.95c-.32 0-.548.125-.697.353a1.433 1.433 0 0 0-.198.576h1.74c-.017-.224-.06-.425-.162-.576-.152-.228-.363-.354-.683-.354" id="Fill-138" fill="#FFF"/><path d="M641.73 100.78c0 .562-.458 1.017-1.019 1.017a1.016 1.016 0 0 1-1.015-1.017v-9.149a1.016 1.016 0 1 1 2.033 0v9.15zm-.357 6.366c-.157.134-3.925 3.296-10.833 3.296-6.91 0-10.676-3.16-10.834-3.296a1.017 1.017 0 0 1 1.321-1.547c.06.05 3.424 2.81 9.512 2.81 6.163 0 9.474-2.78 9.507-2.807a1.017 1.017 0 0 1 1.434.11c.37.427.32 1.068-.107 1.434zm-22.02-15.515a1.017 1.017 0 0 1 2.032 0v9.148a1.017 1.017 0 0 1-2.033 0v-9.148zm5.085-2.034a1.016 1.016 0 1 1 2.033 0v13.588a1.016 1.016 0 1 1-2.033 0V89.597zm5.086-.514a1.017 1.017 0 0 1 2.034 0v14.748a1.018 1.018 0 0 1-2.034 0V89.083zm5.085.514a1.017 1.017 0 0 1 2.034 0v13.588a1.017 1.017 0 0 1-2.034 0V89.597zm7.374-5.594h-22.885a3.814 3.814 0 0 0-3.814 3.814v22.884a3.815 3.815 0 0 0 3.814 3.815h22.885a3.815 3.815 0 0 0 3.814-3.815V87.817a3.815 3.815 0 0 0-3.814-3.814z" id="Fill-140" fill="#FFF"/><path d="M370.836 365.616c3.005 0 3.965 0 5.32-.452a5.695 5.695 0 0 0 3.446-3.445c.452-1.356.452-2.316.452-5.321v-8.675c0-3.005 0-3.965-.452-5.32a5.696 5.696 0 0 0-3.445-3.446c-1.356-.452-2.316-.452-5.321-.452h-8.675c-3.005 0-3.965 0-5.321.452a5.694 5.694 0 0 0-3.445 3.446c-.452 1.355-.452 2.315-.452 5.32v8.675c0 3.005 0 3.965.452 5.32a5.778 5.778 0 0 0 3.448 3.446c1.355.452 2.313.452 5.318.452h8.675z" id="Fill-142" fill="#2196F3"/><path d="M360.712 349.43a5.848 5.848 0 0 1 1.26-1.98 6.146 6.146 0 0 1 1.997-1.357c.779-.338 1.658-.506 2.637-.506 1.314 0 2.435.283 3.359.85.926.568 1.617 1.312 2.076 2.233l-3.004.92a2.705 2.705 0 0 0-1.032-1.023 2.878 2.878 0 0 0-1.421-.357c-.445 0-.858.089-1.24.265a3.036 3.036 0 0 0-.997.736 3.405 3.405 0 0 0-.665 1.139 4.302 4.302 0 0 0-.241 1.473c0 .538.084 1.028.252 1.473.168.446.394.828.676 1.15.283.323.616.572.998.749.382.176.788.265 1.217.265a2.94 2.94 0 0 0 1.524-.415c.466-.276.79-.614.974-1.012l3.005.92c-.413.92-1.093 1.672-2.041 2.255-.95.583-2.087.875-3.417.875-.98 0-1.858-.17-2.637-.507a6.03 6.03 0 0 1-1.996-1.368 6.072 6.072 0 0 1-1.273-2.003 6.46 6.46 0 0 1-.447-2.382c0-.844.145-1.641.436-2.393" id="Fill-144" fill="#FAFAFA"/></g></g></svg>